# xmcd CD database file
#
# Track frame offsets:
#	150
#	17240
#	38365
#	53578
#	74991
#	94802
#	110831
#	131681
#	150966
#	168601
#
# Disc length: 2507 seconds
#
# Revision: 0
# Processed by: cddbd v1.5.1PL0 Copyright (c) Steve Scherf et al.
# Submitted via: CDex 1.51
#
DISCID=8409c90a
DTITLE=Tim Feehan - Carmalita
DYEAR=1983
DGENRE=Weastcoast/AOR
TTITLE0=Carmalita
TTITLE1=January
TTITLE2=Wrong Number
TTITLE3=Alone
TTITLE4=Bad Sister
TTITLE5=Over And Over
TTITLE6=Take Her By Surprise
TTITLE7=Wait One More Day
TTITLE8=Never Say Die
TTITLE9=Sadie J
EXTD=YEAR: 1983
EXTT0=
EXTT1=
EXTT2=
EXTT3=
EXTT4=
EXTT5=
EXTT6=
EXTT7=
EXTT8=
EXTT9=
PLAYORDER=
